<svg width="24" height="24" viewBox="0 0 24 24" fill="none" xmlns="http://www.w3.org/2000/svg">
<path fill-rule="evenodd" clip-rule="evenodd" d="M12 5.25C12.4142 5.25 12.75 5.58579 12.75 6L12.75 14C12.75 14.4142 12.4142 14.75 12 14.75C11.5858 14.75 11.25 14.4142 11.25 14L11.25 6C11.25 5.58579 11.5858 5.25 12 5.25Z" fill="#14142B"/>
<path fill-rule="evenodd" clip-rule="evenodd" d="M15.5303 11.4697C15.8232 11.7626 15.8232 12.2374 15.5303 12.5303L12.8839 15.1768C12.3957 15.6649 11.6043 15.6649 11.1161 15.1768L8.46967 12.5303C8.17678 12.2374 8.17678 11.7626 8.46967 11.4697C8.76256 11.1768 9.23744 11.1768 9.53033 11.4697L12 13.9393L14.4697 11.4697C14.7626 11.1768 15.2374 11.1768 15.5303 11.4697Z" fill="#14142B"/>
<path fill-rule="evenodd" clip-rule="evenodd" d="M19 13.9167C19.4142 13.9167 19.75 14.2525 19.75 14.6667L19.75 17.5C19.75 18.1904 19.1904 18.75 18.5 18.75L5.5 18.75C4.80964 18.75 4.25 18.1904 4.25 17.5L4.25 14C4.25 13.5858 4.58579 13.25 5 13.25C5.41421 13.25 5.75 13.5858 5.75 14L5.75 17.25L18.25 17.25L18.25 14.6667C18.25 14.2525 18.5858 13.9167 19 13.9167Z" fill="#14142B"/>
</svg>
