<svg width="24" height="24" viewBox="0 0 24 24" fill="none" xmlns="http://www.w3.org/2000/svg">
<path fill-rule="evenodd" clip-rule="evenodd" d="M12 5.75C10.7574 5.75 9.75 6.75736 9.75 8C9.75 9.24264 10.7574 10.25 12 10.25C13.2426 10.25 14.25 9.24264 14.25 8C14.25 6.75736 13.2426 5.75 12 5.75ZM8.25 8C8.25 5.92893 9.92893 4.25 12 4.25C14.0711 4.25 15.75 5.92893 15.75 8C15.75 10.0711 14.0711 11.75 12 11.75C9.92893 11.75 8.25 10.0711 8.25 8Z" fill="#14142B"/>
<path fill-rule="evenodd" clip-rule="evenodd" d="M6.25244 15.3625C7.39182 14.1452 9.22801 13.25 12 13.25C14.772 13.25 16.6082 14.1452 17.7476 15.3625C18.8673 16.5588 19.25 17.999 19.25 19C19.25 19.4142 18.9142 19.75 18.5 19.75H5.5C5.08579 19.75 4.75 19.4142 4.75 19C4.75 17.999 5.13267 16.5588 6.25244 15.3625ZM6.3438 18.25H17.6562C17.5183 17.6672 17.2143 16.9878 16.6524 16.3875C15.8418 15.5215 14.428 14.75 12 14.75C9.57199 14.75 8.15818 15.5215 7.34756 16.3875C6.78573 16.9878 6.48167 17.6672 6.3438 18.25Z" fill="#14142B"/>
</svg>
